<?xml version="1.0" standalone="no"?>
<!DOCTYPE svg PUBLIC "-//W3C//DTD SVG 20010904//EN"
 "http://www.w3.org/TR/2001/REC-SVG-20010904/DTD/svg10.dtd">
<svg version="1.0" xmlns="http://www.w3.org/2000/svg"
 width="199.000000pt" height="185.000000pt" viewBox="0 0 199.000000 185.000000"
 preserveAspectRatio="xMidYMid meet">

<g transform="translate(0.000000,185.000000) scale(0.100000,-0.100000)"
fill="#000000" stroke="none">
<path d="M0 925 l0 -925 995 0 995 0 0 925 0 925 -995 0 -995 0 0 -925z m895
590 c54 -30 102 -55 105 -55 3 0 51 25 105 55 141 78 150 77 339 -27 82 -46
166 -99 187 -118 66 -60 76 -157 24 -234 l-24 -36 23 -35 c56 -82 42 -180 -34
-248 l-48 -42 -4 -125 c-8 -200 -8 -200 -335 -364 -152 -76 -200 -96 -234 -96
-33 0 -84 21 -253 106 -116 59 -226 118 -244 132 -50 38 -64 80 -69 222 l-6
125 -48 45 c-62 57 -80 114 -60 188 7 26 22 57 33 69 20 21 20 24 5 41 -25 27
-47 87 -47 126 0 86 35 125 195 216 241 137 242 137 390 55z"/>
<path d="M607 1365 c-141 -80 -167 -100 -167 -126 0 -21 37 -59 58 -59 7 0 80
38 161 84 80 46 159 90 174 97 15 7 27 15 27 18 0 9 -98 61 -113 60 -6 -1 -69
-34 -140 -74z"/>
<path d="M1188 1412 c-27 -15 -48 -29 -48 -32 1 -9 347 -200 362 -200 21 0 58
38 58 59 0 9 -10 27 -22 38 -29 26 -274 163 -291 163 -6 0 -33 -13 -59 -28z"/>
<path d="M865 1229 c-66 -38 -144 -84 -174 -100 l-54 -31 174 -99 c96 -54 181
-98 189 -98 8 0 93 44 189 98 l173 99 -68 40 c-175 101 -287 162 -298 161 -6
0 -65 -32 -131 -70z"/>
<path d="M465 995 c-28 -27 -31 -44 -12 -67 15 -20 278 -168 298 -168 8 0 36
13 63 29 l48 29 -43 25 c-235 134 -312 177 -320 177 -6 0 -21 -11 -34 -25z"/>
<path d="M1320 924 c-91 -53 -168 -99 -173 -103 -11 -11 91 -64 113 -58 10 3
79 39 154 81 109 62 137 82 142 103 6 21 1 31 -20 50 -15 13 -32 23 -39 22 -7
0 -86 -43 -177 -95z"/>
<path d="M570 621 c0 -51 4 -82 13 -88 6 -6 87 -49 180 -97 l167 -87 0 175 0
176 -69 -36 c-89 -47 -126 -47 -220 0 l-71 36 0 -79z"/>
<path d="M1070 525 l0 -177 168 88 c92 47 173 91 180 97 13 10 18 171 5 165
-5 -2 -36 -18 -70 -36 -84 -43 -130 -43 -216 3 l-67 36 0 -176z"/>
</g>
</svg>
